<?xml version="1.0" encoding="UTF-8" standalone="no"?>
<svg
   version="1.0"
   width="737.290543pt"
   height="803.854062pt"
   viewBox="0 0 737.290543 803.854062"
   preserveAspectRatio="xMidYMid meet"
   id="svg1207"
   sodipodi:docname="_5af55b9b-5134-4a54-9816-a1d9ff91bec2.svg"
   inkscape:version="1.2.2 (732a01da63, 2022-12-09)"
   xmlns:inkscape="http://www.inkscape.org/namespaces/inkscape"
   xmlns:sodipodi="http://sodipodi.sourceforge.net/DTD/sodipodi-0.dtd"
   xmlns="http://www.w3.org/2000/svg"
   xmlns:svg="http://www.w3.org/2000/svg">
  <defs
     id="defs1211" />
  <sodipodi:namedview
     id="namedview1209"
     pagecolor="#ffffff"
     bordercolor="#000000"
     borderopacity="0.25"
     inkscape:showpageshadow="2"
     inkscape:pageopacity="0.0"
     inkscape:pagecheckerboard="0"
     inkscape:deskcolor="#d1d1d1"
     inkscape:document-units="pt"
     showgrid="false"
     inkscape:zoom="0.72307901"
     inkscape:cx="491.64752"
     inkscape:cy="535.90271"
     inkscape:window-width="1920"
     inkscape:window-height="991"
     inkscape:window-x="-9"
     inkscape:window-y="-9"
     inkscape:window-maximized="1"
     inkscape:current-layer="svg1207" />
  <metadata
     id="metadata1131">
Created by potrace 1.12, written by Peter Selinger 2001-2015
</metadata>
  <g
     transform="translate(-141.712694,913.819667) scale(0.100000,-0.100000)"
     fill="#000000"
     stroke="none"
     id="g1205"
     style="fill:#e20074;fill-opacity:1">
    <path
       d="M4725 9129 c-276 -29 -486 -75 -715 -155 -302 -105 -625 -281 -860 -470 -231 -185 -491 -490 -621 -729 -24 -43 -68 -107 -99 -140 -151 -168 -384 -500 -524 -748 -162 -287 -298 -634 -381 -971 -83 -340 -108 -545 -108 -886 1 -474 81 -902 250 -1330 49 -124 142 -320 152 -320 3 1 18 20 33 43 62 99 189 230 338 348 48 39 232 158 315 204 l51 28 12 91 c7 50 27 147 44 217 l32 126 -42 66 c-61 97 -84 174 -84 282 0 105 21 197 63 274 l29 54 -19 31 c-96 155 -256 561 -322 816 -78 298 -79 626 -3 899 l29 104 6 -349 c7 -389 16 -464 85 -691 64 -211 203 -553 289 -708 l55 -100 -41 -80 c-102 -201 -88 -369 42 -536 l29 -36 -35 -149 c-19 -82 -41 -200 -49 -263 -8 -62 -16 -115 -18 -116 -2 -2 -61 -38 -133 -80 -71 -42 -173 -107 -225 -143 -273 -191 -452 -445 -574 -817 l-35 -107 77 -102 c234 -309 578 -640 890 -857 280 -195 707 -408 1027 -512 727 -237 1426 -280 2110 -130 633 138 1257 456 1745 888 240 213 478 478 624 693 l75 111 -25 68 c-42 113 -138 302 -204 402 -76 116 -219 261 -324 329 -44 28 -83 53 -88 54 -5 2 -20 44 -34 93 -36 126 -106 288 -162 370 l-47 70 30 59 c23 46 31 77 34 134 3 68 1 79 -33 147 l-36 73 19 34 c29 49 58 145 66 214 8 73 -12 163 -50 227 -27 47 -106 126 -179 182 -47 35 -166 100 -170 93 -15 -20 -56 -99 -56 -105 0 -4 31 -21 68 -38 97 -44 132 -77 132 -127 0 -22 -12 -67 -26 -99 -27 -59 -44 -75 -44 -41 0 37 -53 123 -107 172 -30 27 -60 50 -66 50 -7 0 -25 -19 -42 -41 -48 -66 -191 -195 -258 -235 -66 -39 -157 -78 -164 -70 -3 2 2 15 10 28 35 54 59 162 64 286 l6 124 -50 -36 c-158 -113 -357 -158 -545 -122 -84 17 -151 41 -83 30 76 -11 240 -6 305 11 147 36 256 94 346 182 35 33 49 42 58 33 7 -7 11 -70 11 -188 0 -142 -4 -186 -17 -222 -9 -24 -16 -46 -14 -48 9 -9 199 156 245 213 117 144 201 341 237 554 19 120 15 340 -10 451 -8 36 -11 67 -6 70 18 11 52 103 57 153 6 59 -13 145 -48 225 -22 51 -23 53 -5 82 9 17 28 63 42 103 61 179 33 388 -75 560 l-41 64 12 102 c21 178 -17 369 -112 568 -74 156 -158 272 -300 413 -334 333 -778 536 -1301 595 -143 16 -403 18 -534 4z m381 -109 c88 -11 263 -52 247 -57 -7 -3 -38 1 -70 7 -32 6 -143 13 -248 15 -104 2 -174 1 -155 -1 159 -18 375 -59 425 -80 28 -12 26 -12 -30 -8 -44 3 -26 -3 65 -21 69 -13 159 -36 200 -51 80 -28 125 -50 80 -39 -54 13 -186 35 -205 34 l-20 0 20 -9 c11 -5 31 -9 45 -9 32 -1 224 -60 217 -67 -3 -3 -29 2 -58 10 -30 8 -74 17 -99 20 -39 5 -34 2 35 -22 44 -15 87 -31 95 -34 8 -3 -34 -4 -95 -1 -194 9 -487 -21 -747 -78 -333 -72 -666 -214 -953 -404 -186 -123 -303 -219 -459 -373 -214 -212 -364 -412 -489 -649 -79 -151 -64 -137 -222 -210 -102 -46 -193 -135 -250 -243 l-40 -75 -3 135 c-7 359 114 756 328 1075 124 184 327 406 495 540 316 252 772 467 1158 546 255 52 556 72 733 49z m679 -415 c394 -53 782 -240 928 -447 65 -93 66 -99 4 -39 -31 30 -54 59 -50 64 7 12 -47 67 -67 67 -24 0 -40 -21 -40 -51 0 -21 14 -38 67 -80 62 -50 150 -147 175 -194 6 -11 -26 17 -71 62 -170 170 -448 318 -715 383 -556 134 -1240 31 -1781 -267 -464 -256 -790 -574 -1044 -1015 -34 -59 -66 -119 -71 -133 -8 -21 -13 -24 -28 -16 -10 5 -24 17 -32 25 -7 9 -20 16 -30 16 -19 0 -43 23 -34 33 3 3 3 15 -1 27 -7 21 -7 21 -27 4 -19 -18 -19 -18 1 33 57 145 157 312 287 479 380 489 1008 877 1639 1014 235 51 327 60 555 55 118 -2 269 -11 335 -20z m-35 -310 c176 -29 280 -68 395 -150 62 -45 115 -95 99 -95 -5 0 -63 14 -129 30 -146 37 -305 65 -457 82 -127 14 -760 18 -848 5 -79 -12 -54 4 72 46 121 40 281 75 401 86 143 14 366 12 467 -4z m203 -303 c45 -21 98 -52 117 -69 19 -17 62 -47 95 -68 75 -48 267 -184 320 -227 l40 -33 -43 52 c-52 63 -211 214 -269 256 -24 17 -41 32 -40 34 7 6 240 -108 319 -158 202 -125 367 -306 458 -502 72 -153 79 -306 22 -430 -17 -38 -35 -67 -39 -65 -109 55 -127 60 -218 56 -115 -4 -175 -31 -328 -144 -161 -120 -222 -149 -314 -149 -40 0 -73 -1 -73 -3 0 -1 21 -12 47 -23 37 -16 64 -20 120 -17 40 2 73 0 73 -3 0 -4 -11 -14 -24 -22 -13 -9 -54 -62 -91 -119 -89 -135 -170 -238 -299 -377 -59 -63 -104 -116 -101 -119 3 -3 15 4 28 16 22 21 77 46 77 36 0 -4 -25 -86 -56 -183 -64 -202 -99 -282 -150 -354 l-37 -51 18 -48 c22 -62 22 -170 0 -225 -19 -47 -72 -99 -109 -109 -54 -13 -125 62 -126 134 0 38 -16 24 -29 -26 -33 -132 -150 -220 -237 -179 -39 19 -60 75 -50 131 8 41 13 45 61 51 72 10 128 50 174 126 20 35 23 36 57 29 20 -5 41 -13 47 -19 6 -6 19 -11 28 -11 25 0 92 79 111 130 15 43 48 202 43 208 -2 2 -16 -19 -33 -46 -68 -112 -144 -156 -209 -125 -38 18 -63 48 -64 78 0 11 -9 -3 -18 -31 -26 -70 -46 -108 -83 -149 -41 -47 -77 -65 -130 -65 -49 0 -81 19 -108 62 l-18 29 0 -49 c0 -132 -125 -251 -234 -222 -66 18 -100 87 -78 157 19 59 80 134 103 127 58 -18 161 52 214 145 15 25 28 47 29 49 1 2 20 -6 43 -17 72 -37 118 -24 188 52 37 40 118 191 137 254 4 12 -27 -14 -76 -63 -92 -95 -169 -141 -215 -129 -32 8 -73 42 -73 62 0 25 -15 12 -34 -28 -41 -89 -182 -209 -246 -209 -27 0 -70 22 -93 48 -19 21 -24 61 -13 107 7 28 6 28 -19 -10 -21 -34 -25 -50 -24 -104 l2 -63 -63 -48 c-55 -41 -116 -106 -158 -166 -11 -17 -12 -16 -7 9 12 59 49 141 91 203 26 38 37 61 27 55 -25 -13 -80 -75 -121 -135 -34 -51 -34 -51 -27 -16 25 118 105 214 269 325 61 40 152 108 201 150 50 42 118 95 152 118 34 22 61 42 59 44 -9 9 -195 -66 -296 -120 -208 -110 -223 -117 -247 -117 -39 0 -82 28 -89 58 -3 15 -7 32 -8 37 -2 6 3 28 11 49 21 62 9 53 -22 -15 -25 -56 -27 -70 -22 -135 7 -81 -6 -111 -62 -134 -46 -18 -80 -6 -97 37 -14 32 -14 41 0 82 18 55 15 62 -12 24 -34 -49 -44 -95 -31 -147 14 -55 7 -84 -27 -125 -33 -39 -55 -39 -88 0 -38 45 -37 125 4 195 39 69 92 113 254 213 75 47 181 122 235 167 54 45 122 96 150 114 28 18 51 35 51 36 0 2 -12 -1 -27 -6 -16 -5 -66 -21 -113 -35 -47 -15 -147 -58 -222 -96 -76 -38 -145 -69 -154 -69 -22 0 -54 28 -54 47 0 8 12 30 26 49 59 77 -50 12 -151 -90 -27 -28 -65 -74 -84 -101 -18 -28 -31 -41 -27 -31 16 45 106 167 178 239 42 42 73 77 68 77 -21 0 -148 -121 -185 -176 -52 -78 -60 -86 -42 -42 24 57 80 138 141 203 31 33 56 61 56 63 0 2 -25 -18 -55 -43 -54 -47 -123 -135 -160 -207 -31 -61 -29 -35 5 45 92 220 265 360 526 425 119 29 118 31 -23 58 -122 23 -276 23 -390 -1 -51 -10 -93 -21 -93 -24 0 -8 178 4 210 13 14 5 0 -8 -31 -27 -31 -19 -91 -61 -134 -93 -165 -127 -181 -137 -233 -142 -44 -4 -51 -2 -71 24 -19 24 -22 38 -19 84 6 81 44 132 143 196 44 29 106 76 138 105 80 74 141 113 229 148 101 41 258 80 347 88 89 7 74 15 -63 33 -116 15 -286 9 -400 -15 -43 -9 -81 -14 -84 -10 -12 12 34 79 88 127 l55 50 -45 -22 c-84 -42 -231 -162 -310 -255 -19 -22 -31 -31 -26 -20 37 100 185 263 307 338 107 66 321 135 424 137 92 2 -174 73 -277 74 -76 1 -77 1 -55 18 47 37 165 87 239 102 60 12 143 16 367 16 285 0 292 0 408 -29 65 -16 147 -31 183 -34 l65 -6 -45 15 c-25 8 -115 28 -200 44 -85 16 -193 38 -240 49 -119 29 -214 41 -325 42 -52 0 -95 2 -95 4 0 6 138 83 185 102 132 55 318 79 496 63 62 -5 114 -8 116 -7 6 6 -143 81 -206 104 l-66 24 120 -5 c125 -4 163 -13 318 -75 94 -37 180 -80 266 -133 35 -21 66 -37 68 -35 11 11 -212 191 -333 269 -63 40 -221 119 -294 145 l-65 23 60 -6 c139 -13 406 -83 493 -128 19 -10 36 -15 38 -13 7 7 -131 123 -182 153 -25 15 -43 28 -41 30 7 7 206 -56 285 -90 106 -46 222 -105 321 -165 48 -29 76 -42 65 -29 -59 66 -196 184 -298 256 -33 23 -55 42 -49 42 10 0 250 -80 287 -95 36 -15 7 13 -62 62 -111 78 -110 80 11 25z m-2245 -624 c-5 -34 -38 -37 -38 -4 0 20 5 26 21 26 15 0 20 -5 17 -22z m-768 -460 c180 -55 318 -209 371 -416 38 -150 19 -383 -46 -545 -33 -82 -51 -98 -25 -22 23 66 40 186 39 263 l-1 57 -10 -45 c-6 -25 -24 -88 -42 -140 l-31 -95 -5 75 -5 75 -7 -55 c-3 -30 -15 -75 -26 -100 -22 -47 -29 -50 -12 -5 14 37 33 214 25 234 -5 10 -18 -28 -36 -99 -34 -136 -73 -220 -134 -288 -116 -129 -265 -136 -391 -20 -142 130 -212 336 -201 588 9 195 54 322 156 432 103 112 238 149 381 106z m515 -39 c0 -7 -8 -15 -17 -17 -18 -3 -25 18 -11 32 10 10 28 1 28 -15z m3381 -150 c72 -34 132 -118 153 -211 l10 -43 -55 57 c-56 59 -65 64 -38 23 l15 -24 -78 6 c-55 4 -86 12 -105 26 -20 15 -36 18 -64 14 -45 -8 -79 -37 -109 -98 -38 -74 -116 -100 -182 -59 -28 17 -33 17 -33 4 0 -8 -5 -12 -11 -8 -29 18 22 133 95 212 95 103 295 153 402 101z m31 -270 c28 -8 58 -25 79 -46 45 -44 43 -59 -2 -28 -84 57 -143 54 -313 -14 -159 -64 -175 -58 -34 13 112 56 172 80 216 85 5 1 29 -4 54 -10z m-42 -230 c38 -74 65 -185 71 -289 6 -99 -7 -109 -21 -16 -14 101 -24 90 -20 -24 l4 -115 -14 69 c-8 38 -17 71 -20 74 -3 3 -5 -44 -6 -104 l-1 -109 -14 80 c-17 94 -38 158 -28 85 12 -86 14 -249 4 -255 -6 -4 -10 6 -10 22 0 71 -71 226 -152 331 -48 62 -144 140 -211 173 -26 13 -47 26 -47 29 0 3 44 13 98 23 53 10 147 35 207 56 77 26 114 34 123 27 8 -5 24 -31 37 -57z m-4951 -45 c19 -19 20 -25 3 -48 -21 -29 -61 -17 -65 18 -5 43 32 61 62 30z m4576 -86 c65 -31 156 -119 194 -189 l28 -49 -89 88 c-93 93 -190 154 -275 172 -40 9 -39 9 22 7 45 -2 82 -11 120 -29z m-396 -158 c73 -47 139 -113 231 -234 46 -61 103 -124 125 -141 23 -16 36 -31 31 -33 -25 -8 -124 63 -184 131 -34 40 -113 124 -174 187 -62 63 -113 115 -113 117 0 12 44 -2 84 -27z m-3980 -16 c31 -30 11 -84 -31 -84 -26 0 -52 24 -53 48 0 16 37 52 54 52 8 0 22 -7 30 -16z m1276 -174 c135 -211 342 -414 588 -574 127 -84 411 -222 567 -276 343 -119 753 -188 1266 -212 539 -25 1047 40 1332 171 77 35 183 114 208 155 l19 31 0 -40 c0 -52 -35 -217 -54 -253 -25 -48 -74 -88 -130 -105 -30 -10 -77 -33 -105 -52 -77 -53 -255 -98 -502 -126 -101 -11 -109 -10 -170 11 -54 19 -89 23 -219 26 -85 2 -254 6 -375 8 -476 10 -1005 105 -1379 247 -43 17 -80 28 -83 25 -28 -28 179 -111 437 -176 264 -66 515 -109 770 -130 74 -6 180 -15 235 -19 l100 -8 -111 -2 c-251 -3 -661 50 -964 124 -243 59 -603 186 -565 199 29 9 65 67 65 103 0 55 -91 109 -139 83 -36 -19 -54 -56 -48 -100 3 -22 3 -40 -1 -40 -12 0 -231 126 -302 173 -257 172 -444 359 -568 567 -46 78 -74 132 -60 120 4 -3 27 -34 54 -70 197 -271 392 -462 624 -612 116 -76 167 -101 176 -87 8 14 -16 34 -126 99 -47 28 -125 80 -174 117 -165 124 -437 411 -484 510 -15 31 -14 34 5 55 27 30 39 55 47 101 4 20 9 37 10 37 2 0 27 -36 56 -80z m308 52 c2 -7 -4 -15 -13 -18 -20 -8 -27 -1 -19 20 7 18 25 17 32 -2z m-428 -99 c0 -7 -4 -13 -10 -13 -5 0 -10 12 -10 28 0 21 2 24 10 12 5 -8 10 -21 10 -27z m-1285 -142 c17 -101 61 -160 141 -190 30 -12 66 -21 79 -21 43 0 35 -17 -11 -24 -115 -15 -173 -68 -200 -182 -25 -103 -26 -104 -40 -37 -30 139 -80 189 -218 217 l-61 13 60 13 c141 29 198 91 220 235 8 55 18 47 30 -24z m1161 -58 c274 -468 865 -844 1630 -1037 331 -84 586 -116 975 -123 l305 -6 -13 -51 c-21 -75 -11 -154 26 -220 30 -51 31 -55 14 -71 -39 -39 -75 -45 -290 -45 -359 0 -646 25 -903 79 -324 69 -377 82 -610 160 -270 90 -438 169 -575 271 -27 21 -77 52 -111 69 -40 21 -92 65 -160 133 -54 55 -92 97 -84 92 8 -4 -39 50 -105 121 -114 122 -165 187 -195 245 -17 33 -12 27 52 -58 30 -40 105 -125 167 -188 62 -63 110 -118 107 -123 -10 -15 137 -146 219 -196 44 -27 103 -65 130 -85 62 -45 214 -132 280 -160 216 -93 674 -232 718 -217 6 2 -30 12 -79 22 -284 59 -706 226 -894 353 -36 25 -110 75 -165 112 -100 67 -160 118 -150 128 3 3 18 -5 33 -19 34 -31 92 -71 92 -65 0 3 -25 24 -55 46 -30 22 -71 57 -92 78 -58 56 -186 202 -204 231 -9 14 -33 42 -54 61 -20 19 -57 62 -83 95 -25 33 -59 77 -75 97 -17 21 -28 40 -26 43 3 2 36 -35 74 -83 74 -93 171 -195 245 -258 l45 -38 -40 44 c-22 25 -72 79 -111 120 -79 84 -256 320 -240 320 5 0 131 -159 158 -200 9 -14 51 -61 93 -105 74 -77 74 -77 19 -12 -32 37 -59 73 -60 81 -1 7 -29 47 -62 88 -62 76 -162 226 -162 242 0 8 104 -127 147 -191 33 -48 -6 31 -69 141 -37 66 -68 121 -68 123 0 3 18 -17 40 -42 46 -53 48 -50 20 22 l-20 52 48 4 c26 2 52 4 57 5 6 1 33 -37 61 -85z m3289 -42 c-3 -5 -31 -20 -63 -32 -77 -31 -275 -34 -366 -6 -32 10 -57 20 -55 22 2 1 36 -4 74 -12 92 -20 266 -12 350 15 33 11 61 20 63 21 2 1 1 -3 -3 -8z m-4054 -281 c24 -14 24 -42 0 -64 -15 -14 -24 -15 -40 -6 -26 13 -28 55 -3 69 21 13 20 13 43 1z m760 -23 c12 -22 12 -22 -10 -3 -11 11 -21 23 -21 28 0 14 19 -1 31 -25z m249 -474 c52 -51 91 -93 85 -93 -15 0 64 -51 125 -81 49 -24 179 -113 205 -141 14 -15 -7 -3 -90 52 -38 26 -97 62 -130 80 -72 39 -126 78 -122 88 1 5 -30 36 -70 70 -40 34 -109 106 -155 159 -115 135 -126 155 -27 48 46 -49 127 -131 179 -182z m-473 72 c156 -186 590 -454 993 -614 627 -249 1207 -361 1859 -361 549 0 957 61 1283 191 104 41 205 96 228 124 29 35 44 -2 27 -67 -15 -58 -75 -115 -171 -161 -522 -253 -1550 -311 -2386 -136 -163 34 -450 110 -575 151 -630 211 -1215 550 -1362 792 -33 54 -38 69 -38 126 0 36 4 83 8 104 l9 39 33 -59 c18 -32 60 -90 92 -129z m-1109 113 c28 -28 1 -75 -36 -63 -23 7 -33 36 -20 59 11 19 39 21 56 4z m393 -244 c30 -49 71 -79 125 -93 27 -7 58 -17 69 -21 19 -8 19 -9 -3 -9 -41 -2 -135 -40 -164 -68 -30 -28 -68 -117 -68 -158 0 -43 -17 -27 -25 22 -16 106 -78 175 -175 194 -41 8 -57 15 -48 20 7 5 21 9 31 9 10 0 43 12 73 26 44 21 60 36 84 77 16 29 32 72 36 97 10 70 17 70 31 1 7 -35 22 -78 34 -97z m1224 96 c12 -19 -12 -10 -31 11 -19 22 -19 22 3 10 12 -6 25 -16 28 -21z m176 -256 c170 -102 234 -135 241 -129 3 3 56 -19 119 -49 222 -104 633 -228 960 -290 264 -50 360 -59 709 -65 204 -4 324 -10 308 -15 -47 -14 -619 0 -748 18 -300 43 -490 83 -760 161 -427 122 -867 331 -1036 492 -77 74 -87 96 -13 28 37 -33 136 -101 220 -151z m3687 105 c99 -48 110 -158 23 -232 -39 -33 -88 -44 -104 -24 -7 8 -36 22 -65 32 -29 9 -57 25 -62 35 -32 59 12 166 80 194 49 21 77 19 128 -5z m-284 -254 c7 -18 6 -19 -6 -3 -13 15 -16 10 -26 -42 -14 -66 -47 -113 -91 -128 -26 -9 -30 -8 -35 11 -3 12 -6 48 -6 80 0 31 -4 57 -10 57 -5 0 -10 -7 -10 -15 0 -19 -35 -89 -64 -128 -29 -39 -61 -54 -136 -63 l-63 -7 7 24 c30 105 26 192 -9 243 -22 30 -18 46 11 46 46 0 237 31 329 53 l90 22 6 -65 c3 -36 9 -74 13 -85z m-575 71 c47 -33 91 -115 91 -171 0 -103 -111 -198 -197 -167 -27 10 -26 10 17 11 123 2 200 121 140 218 -54 89 -171 80 -237 -17 -25 -35 -30 -97 -13 -131 18 -32 -6 -21 -29 14 -24 38 -26 29 -6 -35 15 -52 12 -57 -22 -29 -82 68 -84 200 -5 285 41 44 78 57 153 53 54 -2 74 -8 108 -31z m-46 -138 c8 -12 7 -21 -2 -32 -18 -22 -38 -20 -51 5 -22 40 29 66 53 27z m-3342 -97 c91 -24 172 -58 165 -70 -3 -5 -16 -11 -28 -14 -13 -3 -94 -26 -182 -51 -87 -25 -169 -46 -181 -46 -13 0 -30 11 -39 25 -16 25 -16 25 10 25 23 0 304 68 312 75 2 2 -22 11 -53 21 -53 16 -113 53 -89 54 6 0 44 -9 85 -19z m-681 -90 c0 -21 -6 -32 -20 -36 -27 -8 -40 1 -40 29 0 29 7 36 37 36 19 0 23 -5 23 -29z m-356 -84 c26 -19 13 -57 -19 -57 -28 0 -43 34 -25 55 15 18 21 19 44 2z m1446 -29 c36 -11 109 -38 163 -59 224 -89 369 -180 507 -319 130 -130 186 -204 440 -592 35 -54 65 -96 67 -94 2 2 -6 23 -17 47 -26 58 -26 115 -1 129 14 7 71 6 193 -4 95 -8 236 -17 312 -21 80 -4 154 -12 172 -20 54 -22 59 -43 58 -215 -1 -216 -1 -217 -204 -240 -52 -6 -162 -17 -245 -24 -94 -9 -172 -21 -208 -34 l-58 -21 -49 77 -48 76 5 -60 c4 -48 2 -62 -11 -73 -22 -18 -25 -14 -84 94 -171 311 -437 738 -575 923 -132 177 -422 396 -577 435 -39 10 -49 16 -35 20 32 8 124 -4 195 -25z m-450 -45 c-8 -3 -33 -23 -56 -43 -72 -66 -84 -71 -183 -73 -50 -1 -91 0 -91 3 2 15 148 103 183 110 47 9 170 12 147 3z m307 -33 c24 -10 51 -26 59 -35 14 -14 14 -16 -3 -22 -62 -22 -152 -68 -194 -99 -34 -24 -53 -33 -62 -27 -6 5 -47 23 -89 38 -75 28 -77 30 -60 48 22 25 123 94 165 113 40 18 123 11 184 -16z m4010 -121 c30 -57 7 -184 -43 -239 -62 -69 -215 -147 -379 -195 -171 -49 -483 -104 -785 -136 -151 -16 -633 -16 -780 0 -310 33 -480 61 -680 112 -215 54 -204 50 -188 60 10 7 7 14 -12 29 -14 11 -31 20 -38 20 -7 0 -11 4 -8 9 4 5 0 11 -6 14 -7 3 13 3 45 0 31 -3 57 -3 57 0 0 3 -38 20 -85 38 -47 17 -85 33 -85 35 0 2 24 1 53 -2 l52 -5 -40 20 c-22 11 -64 30 -93 42 -29 12 -51 24 -48 26 2 3 42 -5 89 -17 130 -33 133 -20 6 29 -120 46 -256 109 -264 121 -3 5 23 0 57 -11 257 -79 692 -166 1028 -205 183 -21 751 -30 946 -15 453 36 827 123 1078 252 50 25 96 45 101 44 6 -1 16 -12 22 -26z m-3779 -13 c40 -25 112 -100 112 -116 0 -6 -13 -10 -28 -10 -64 0 -209 -58 -245 -97 -17 -19 -18 -19 -55 13 -20 19 -55 49 -77 68 -35 30 -38 36 -25 51 26 32 215 114 263 115 9 0 34 -11 55 -24z m-688 -31 c249 -52 483 -236 670 -525 165 -255 254 -597 267 -1020 6 -214 -9 -409 -49 -618 l-22 -114 -30 6 c-17 4 -60 20 -95 36 -60 28 -63 31 -56 57 42 168 66 565 46 767 -21 213 -86 460 -172 659 -67 154 -200 344 -301 430 -78 66 -205 140 -289 168 -65 21 -91 24 -219 23 -134 0 -151 -2 -220 -28 -85 -32 -187 -95 -258 -158 -48 -43 -39 -29 32 52 54 61 196 174 259 207 133 69 288 89 437 58z m925 -187 c27 -21 105 -132 105 -150 0 -4 -11 -6 -24 -2 -50 12 -251 -39 -298 -76 l-24 -18 -57 76 c-52 70 -55 77 -41 93 29 32 145 71 274 92 14 2 28 5 31 6 4 0 19 -9 34 -21z m4017 -25 c45 -41 88 -122 88 -165 0 -18 9 -33 25 -44 30 -20 26 -31 -4 -14 -31 16 -27 -7 7 -43 l27 -29 -28 13 c-32 14 -51 2 -23 -15 11 -6 33 -24 50 -39 l31 -29 -30 7 c-16 3 -38 8 -47 11 -10 3 -18 1 -18 -5 0 -6 3 -11 8 -11 4 0 21 -11 37 -25 l30 -25 -37 2 c-52 4 -51 -14 2 -32 l45 -15 -52 -3 c-38 -2 -53 -7 -53 -18 0 -9 11 -14 33 -14 55 0 65 -17 16 -25 -62 -9 -79 -15 -79 -26 0 -5 20 -9 45 -9 25 0 45 -4 45 -10 0 -5 -9 -10 -21 -10 -52 0 -186 -96 -244 -175 -21 -29 22 124 95 334 33 96 59 176 57 177 -1 1 -30 -21 -65 -48 -55 -44 -146 -159 -165 -208 -27 -72 23 244 55 340 34 107 84 190 113 190 8 0 34 -17 57 -37z m-5044 -113 c129 -45 268 -171 370 -335 95 -153 150 -309 197 -555 21 -108 33 -458 17 -486 -10 -17 -11 -17 -12 7 0 45 -39 223 -76 350 -61 212 -105 306 -224 478 -19 28 -38 51 -41 51 -4 0 8 -30 27 -67 31 -63 94 -241 94 -266 0 -6 -11 3 -23 21 -13 17 -37 42 -53 54 -16 12 -46 37 -67 56 -51 44 -58 34 -14 -20 46 -58 117 -163 117 -174 -1 -5 -15 7 -33 27 -45 50 -132 118 -124 97 3 -10 28 -51 55 -90 27 -40 57 -89 67 -108 16 -31 10 -28 -51 31 -58 56 -134 110 -134 95 0 -2 32 -46 71 -97 87 -114 54 -89 -44 34 -68 86 -154 160 -229 198 -21 11 -38 17 -38 14 0 -2 16 -30 37 -62 45 -72 107 -203 139 -296 13 -39 24 -73 24 -76 0 -3 -15 9 -32 26 -44 40 -108 87 -113 82 -2 -3 32 -43 76 -91 85 -92 103 -122 40 -65 -47 42 -151 110 -158 103 -6 -5 113 -152 142 -176 9 -7 21 -23 27 -34 8 -15 0 -11 -28 12 -21 18 -89 71 -151 117 -61 46 -115 91 -120 98 -17 30 -146 160 -140 141 16 -47 97 -329 97 -336 0 -24 -527 502 -535 535 -9 34 108 289 178 390 15 22 22 25 33 16 9 -7 14 -8 14 -1 0 6 -6 12 -12 14 -9 3 -4 18 15 47 22 33 32 41 48 36 18 -6 19 -4 10 13 -13 25 7 46 35 35 16 -6 17 -4 7 8 -10 12 -3 22 40 56 145 113 319 147 475 93z m4669 -134 c-7 -170 -16 -207 -66 -249 -38 -32 -162 -92 -224 -109 -75 -20 -77 -16 -77 122 0 180 1 180 255 330 55 33 104 59 109 60 5 0 7 -64 3 -154z m-3457 8 c27 -23 97 -141 88 -148 -2 -2 -55 -8 -118 -14 -111 -10 -226 -42 -242 -65 -6 -10 -88 141 -88 163 0 22 117 61 238 79 87 13 88 13 122 -15z m2763 -238 c41 -17 91 -73 108 -123 11 -30 14 -122 12 -432 l-1 -393 -24 -25 c-13 -14 -70 -64 -128 -110 -83 -66 -139 -101 -275 -167 -93 -46 -212 -98 -263 -116 -51 -18 -91 -35 -89 -37 5 -5 160 41 238 70 167 63 356 178 471 286 65 61 88 65 50 10 -58 -85 -313 -254 -507 -335 -208 -87 -404 -134 -562 -134 -74 0 -115 4 -127 13 -15 11 -7 12 51 9 81 -5 76 9 -12 28 -33 7 -70 20 -82 30 -22 17 -21 18 45 13 l67 -4 -58 24 c-55 24 -91 46 -84 53 1 2 26 -3 55 -10 29 -8 52 -11 52 -7 0 3 -27 21 -60 39 -33 19 -60 36 -60 39 0 3 23 2 50 -2 28 -4 50 -4 50 -1 0 3 -22 17 -50 31 -55 28 -68 50 -20 34 53 -19 57 -3 8 31 -55 38 -62 54 -18 39 16 -6 37 -9 47 -7 14 3 6 12 -29 34 -26 16 -48 33 -48 38 0 5 27 6 61 3 l60 -5 -60 28 c-67 32 -87 66 -29 49 18 -5 37 -9 42 -9 16 0 -14 28 -44 40 -44 18 -38 34 10 26 22 -3 40 -4 40 -1 0 3 -18 12 -40 21 -31 13 -40 21 -40 40 0 20 3 23 18 16 9 -5 31 -12 47 -16 26 -5 25 -4 -10 14 -43 22 -65 45 -65 68 0 13 3 13 18 -1 9 -8 31 -18 47 -21 24 -5 26 -5 10 3 -35 17 -63 45 -70 71 -8 24 -7 24 18 7 43 -28 55 -19 14 10 -46 32 -47 47 -4 38 l32 -6 -32 20 c-37 23 -49 70 -14 51 36 -19 46 -10 12 11 l-34 20 7 104 c10 151 46 241 125 313 75 66 126 81 416 122 121 17 281 41 355 54 154 28 256 32 303 12z m-2595 -68 c11 -29 24 -64 27 -78 4 -14 9 -32 11 -41 4 -15 -7 -17 -81 -18 -119 -2 -244 -31 -286 -67 -14 -13 -19 -5 -43 73 -14 49 -26 94 -26 100 0 20 50 40 136 57 112 22 122 23 185 25 l57 1 20 -52z m3227 -485 c-5 -20 -59 -70 -128 -118 -12 -8 -18 -17 -14 -21 3 -3 36 12 72 35 36 23 65 38 65 33 0 -14 -83 -89 -134 -121 -28 -17 -42 -31 -33 -31 25 0 75 22 121 54 22 14 42 23 45 20 7 -8 -107 -112 -131 -120 -10 -3 -18 -10 -18 -15 0 -18 38 -9 76 19 55 39 64 44 64 35 0 -5 -23 -27 -52 -48 -29 -22 -62 -50 -73 -61 -12 -12 -32 -27 -44 -34 -13 -6 -20 -14 -18 -17 7 -7 88 30 133 61 21 14 40 23 42 21 6 -6 -29 -36 -101 -86 -38 -27 -55 -45 -49 -51 11 -11 76 13 106 40 18 16 18 16 8 -4 -6 -12 -41 -39 -77 -60 -36 -21 -65 -42 -65 -46 0 -15 45 -8 85 12 l40 19 -35 -30 c-29 -25 -167 -99 -185 -99 -3 0 -5 195 -5 434 l0 435 23 25 c12 14 66 42 124 65 56 22 114 46 130 54 l28 15 3 -196 c1 -109 0 -207 -3 -219z m-3147 213 c16 -36 34 -138 30 -171 l-3 -30 -90 -7 c-75 -6 -147 -22 -286 -64 -14 -4 -18 9 -28 71 -18 121 -16 142 17 159 26 13 152 48 212 59 14 2 50 5 81 6 50 1 57 -2 67 -23z m1112 -283 c19 -25 20 -42 20 -588 0 -656 13 -593 -122 -605 -103 -10 -524 0 -506 11 7 5 11 9 8 9 -3 0 -36 2 -74 5 -84 5 -115 25 -40 25 30 0 58 6 70 16 18 14 16 15 -31 10 l-50 -5 37 12 c58 19 58 30 1 22 -29 -4 -53 -5 -53 -2 0 3 24 13 53 23 l52 18 -54 7 c-71 9 -91 29 -30 30 24 1 55 4 69 8 23 7 22 8 -15 15 -22 3 -53 10 -70 13 l-30 6 25 8 c14 4 44 7 68 8 51 1 48 16 -5 25 -95 17 -100 35 -10 38 l62 1 -50 7 c-47 6 -48 6 -20 14 51 13 55 15 55 26 0 6 -22 7 -60 3 -33 -3 -60 -2 -60 3 0 5 28 18 63 29 l62 19 -45 3 c-92 6 -100 15 -30 30 84 17 100 33 35 34 -85 1 -97 14 -27 28 69 13 83 31 25 31 -21 0 -49 3 -61 7 -32 8 -9 22 38 24 19 0 44 4 55 8 15 6 9 10 -30 15 -76 11 -87 23 -29 31 91 12 106 23 31 24 -76 1 -83 16 -12 27 55 8 69 24 22 24 -50 0 -98 11 -91 21 3 5 30 9 60 9 30 0 54 4 54 9 0 11 -16 16 -72 26 -51 8 -58 25 -11 26 21 1 49 4 63 9 29 8 18 15 -42 25 -51 8 -56 23 -11 30 21 4 47 10 58 15 17 7 14 9 -15 10 -19 1 -46 5 -60 10 l-25 7 28 12 c16 6 42 11 58 11 16 0 29 5 29 10 0 6 -15 10 -32 10 -18 0 -43 3 -55 6 -42 11 -24 24 35 24 40 0 53 3 42 10 -8 5 -28 10 -45 10 -16 0 -37 5 -45 10 -11 7 2 10 43 10 73 0 74 16 2 25 -74 9 -80 25 -11 25 31 0 56 5 56 10 0 6 -12 10 -26 10 -14 0 -35 6 -47 13 -20 11 -17 12 33 17 l55 6 -55 10 -55 11 57 7 c32 5 56 12 53 16 -3 4 -32 11 -65 15 -33 4 -60 10 -60 14 0 13 636 50 708 42 20 -2 40 -13 52 -28z m-1060 -49 c6 -14 13 -69 16 -124 8 -115 11 -111 -106 -130 -98 -16 -186 -36 -239 -55 -24 -8 -47 -15 -52 -15 -5 0 -9 56 -9 125 0 150 -8 141 165 179 66 15 134 31 150 35 51 15 65 12 75 -15z m-1631 -168 c105 -129 109 -135 62 -91 -40 38 -127 142 -146 175 -18 31 27 -14 84 -84z m1637 -222 c8 -30 -3 -165 -16 -198 -7 -19 -21 -25 -82 -35 -40 -8 -126 -26 -191 -42 -65 -16 -122 -29 -126 -29 -5 0 -7 10 -5 23 2 12 8 66 15 119 6 54 17 102 23 107 14 12 301 78 343 80 27 1 34 -3 39 -25z m-1181 -25 c9 -17 15 -33 13 -35 -3 -2 -12 12 -21 31 -21 43 -13 47 8 4z m3745 -12 c0 -7 -27 -41 -60 -74 -58 -60 -197 -151 -337 -221 -78 -40 -334 -126 -434 -146 -102 -21 -237 -29 -274 -17 l-30 9 40 1 c132 3 351 52 535 119 200 73 403 191 510 296 52 51 50 50 50 33z m-47 -141 c-60 -71 -240 -184 -377 -237 -43 -16 -80 -29 -82 -27 -2 2 36 21 84 42 117 50 274 145 342 206 30 27 57 49 58 50 2 0 -9 -15 -25 -34z m-2573 -196 c8 -16 7 -39 -5 -96 -14 -61 -21 -75 -39 -79 -218 -44 -240 -47 -298 -35 -32 7 -61 17 -64 22 -8 13 15 105 30 117 10 9 322 88 353 90 7 1 17 -8 23 -19z"
       id="path1133"
       style="fill:#e20074;fill-opacity:1" />
    <path
       d="M5212 8568 c-24 -30 -18 -76 13 -90 35 -16 75 12 75 52 0 43 -62 69 -88 38z"
       id="path1135"
       style="fill:#e20074;fill-opacity:1" />
    <path
       d="M5852 8538 c-7 -7 -12 -25 -12 -40 0 -34 34 -54 74 -44 50 12 26 96 -28 96 -12 0 -27 -5 -34 -12z"
       id="path1137"
       style="fill:#e20074;fill-opacity:1" />
    <path
       d="M4591 8426 c-7 -8 -11 -30 -9 -48 3 -29 7 -33 36 -36 18 -2 40 2 48 9 17 14 18 61 2 77 -16 16 -63 15 -77 -2z"
       id="path1139"
       style="fill:#e20074;fill-opacity:1" />
    <path
       d="M3964 8125 c-14 -21 -15 -31 -6 -50 22 -47 102 -22 102 31 0 49 -68 62 -96 19z"
       id="path1141"
       style="fill:#e20074;fill-opacity:1" />
    <path
       d="M3250 7510 c-26 -26 -25 -55 1 -81 43 -43 116 25 81 77 -15 23 -61 25 -82 4z"
       id="path1143"
       style="fill:#e20074;fill-opacity:1" />
    <path
       d="M5567 7206 c45 -23 90 -48 100 -55 10 -7 2 1 -17 18 -36 32 -128 81 -152 81 -7 0 24 -20 69 -44z"
       id="path1145"
       style="fill:#e20074;fill-opacity:1" />
    <path
       d="M5234 7121 c-112 -19 -225 -106 -275 -209 -34 -71 -38 -207 -9 -285 45 -120 195 -225 328 -228 75 -2 84 -19 10 -19 -94 1 -223 38 -243 70 -3 5 -16 15 -28 21 -14 7 -8 -4 18 -30 84 -88 225 -129 346 -101 176 41 293 176 306 353 10 129 -46 264 -141 342 -87 71 -208 105 -312 86z m114 -147 c30 -20 30 -79 0 -111 -44 -47 -148 -13 -148 49 0 72 80 106 148 62z m-248 -102 c-24 -62 -26 -155 -5 -205 56 -135 204 -189 337 -124 32 16 67 40 78 54 24 31 27 18 3 -17 -59 -89 -133 -126 -233 -117 -188 17 -306 206 -232 372 21 45 61 99 68 92 2 -2 -5 -27 -16 -55z"
       id="path1147"
       style="fill:#e20074;fill-opacity:1" />
    <path
       d="M4853 7075 c-26 -24 -41 -44 -33 -44 13 1 100 89 87 89 -3 0 -27 -20 -54 -45z"
       id="path1149"
       style="fill:#e20074;fill-opacity:1" />
    <path
       d="M4550 7047 c-44 -11 -42 -11 64 -19 73 -5 115 -4 128 3 17 9 18 13 7 20 -19 12 -144 9 -199 -4z"
       id="path1151"
       style="fill:#e20074;fill-opacity:1" />
    <path
       d="M5766 6980 c67 -114 104 -170 99 -150 -12 42 -56 118 -83 142 -14 13 -21 16 -16 8z"
       id="path1153"
       style="fill:#e20074;fill-opacity:1" />
    <path
       d="M4751 6668 c0 -7 4 -22 9 -33 8 -18 9 -17 9 7 1 15 -3 30 -9 33 -5 3 -10 0 -9 -7z"
       id="path1155"
       style="fill:#e20074;fill-opacity:1" />
    <path
       d="M5800 6438 c-52 -83 -191 -188 -303 -228 -48 -18 -49 -19 -20 -20 48 0 159 45 214 87 52 40 101 102 125 159 21 49 14 50 -16 2z"
       id="path1157"
       style="fill:#e20074;fill-opacity:1" />
    <path
       d="M4841 6395 c5 -16 9 -31 9 -31 0 -1 -14 -7 -31 -13 -44 -15 -99 -14 -133 4 -40 21 -42 19 -9 -9 76 -63 240 -115 388 -122 l100 -4 -60 18 c-92 28 -144 59 -211 126 -56 56 -61 59 -53 31z"
       id="path1159"
       style="fill:#e20074;fill-opacity:1" />
    <path
       d="M2673 6776 c-80 -36 -160 -141 -194 -254 -8 -28 -15 -38 -20 -30 -5 7 -6 -5 -3 -27 4 -31 3 -37 -6 -25 -9 11 -10 -18 -7 -125 6 -194 43 -300 139 -401 97 -103 199 -119 305 -49 65 43 122 127 148 217 25 83 25 293 2 390 -44 180 -156 307 -280 315 -31 2 -65 -2 -84 -11z m163 -102 c153 -99 211 -393 118 -603 -34 -75 -68 -117 -115 -142 -105 -53 -207 -2 -278 140 -69 136 -69 348 -1 481 67 131 184 184 276 124z"
       id="path1161"
       style="fill:#e20074;fill-opacity:1" />
    <path
       d="M2655 6526 c-54 -56 -75 -117 -75 -218 0 -123 53 -233 126 -264 133 -56 251 156 200 356 -29 112 -86 170 -166 170 -38 0 -48 -5 -85 -44z m120 -100 c24 -37 16 -87 -17 -106 -26 -14 -29 -13 -49 7 -27 27 -29 75 -4 103 24 27 51 25 70 -4z"
       id="path1163"
       style="fill:#e20074;fill-opacity:1" />
    <path
       d="M3270 4875 c31 -33 65 -71 76 -85 11 -14 31 -34 44 -45 14 -11 7 0 -15 25 -22 25 -49 56 -61 70 -11 14 -38 41 -59 60 -28 24 -23 17 15 -25z"
       id="path1165"
       style="fill:#e20074;fill-opacity:1" />
    <path
       d="M4540 4150 c8 -5 24 -10 34 -10 26 0 18 6 -19 14 -22 5 -26 4 -15 -4z"
       id="path1167"
       style="fill:#e20074;fill-opacity:1" />
    <path
       d="M4615 4130 c11 -5 29 -8 40 -8 16 0 15 2 -5 8 -34 11 -60 11 -35 0z"
       id="path1169"
       style="fill:#e20074;fill-opacity:1" />
    <path
       d="M4725 4070 c17 -4 41 -8 55 -8 22 0 22 1 -5 8 -16 4 -41 8 -55 8 -22 0 -22 -1 5 -8z"
       id="path1171"
       style="fill:#e20074;fill-opacity:1" />
    <path
       d="M4955 4024 c33 -7 69 -13 80 -13 11 1 -7 7 -40 15 -33 7 -69 13 -80 13 -11 -1 7 -7 40 -15z"
       id="path1173"
       style="fill:#e20074;fill-opacity:1" />
    <path
       d="M5105 4029 c22 -4 54 -8 70 -7 l30 0 -30 8 c-16 4 -48 8 -70 8 l-40 0 40 -9z"
       id="path1175"
       style="fill:#e20074;fill-opacity:1" />
    <path
       d="M5125 3990 c51 -8 202 -13 194 -6 -2 2 -58 6 -124 8 -75 4 -101 3 -70 -2z"
       id="path1177"
       style="fill:#e20074;fill-opacity:1" />
    <path
       d="M5478 3966 c88 -5 208 -5 285 0 120 8 105 9 -153 9 -273 0 -279 0 -132 -9z"
       id="path1179"
       style="fill:#e20074;fill-opacity:1" />
    <path
       d="M7151 4502 c-43 -40 -59 -80 -43 -108 8 -14 11 -10 17 23 4 25 20 57 41 82 44 51 37 53 -15 3z"
       id="path1181"
       style="fill:#e20074;fill-opacity:1" />
    <path
       d="M7199 4461 c-56 -57 -24 -145 46 -127 48 12 85 112 53 144 -22 22 -68 14 -99 -17z"
       id="path1183"
       style="fill:#e20074;fill-opacity:1" />
    <path
       d="M4966 2930 c-19 -17 -37 -44 -41 -59 -16 -72 69 -160 142 -148 44 7 89 49 102 94 7 23 4 41 -9 71 -34 76 -131 97 -194 42z m174 -56 c12 -31 0 -71 -30 -104 -22 -24 -37 -30 -68 -30 -23 0 -44 5 -48 12 -5 8 -2 9 10 5 23 -9 80 16 100 44 20 29 20 65 1 103 l-16 30 22 -20 c12 -10 25 -28 29 -40z"
       id="path1185"
       style="fill:#e20074;fill-opacity:1" />
    <path
       d="M6905 3538 c-31 -18 -44 -40 -45 -76 0 -46 16 -71 56 -88 35 -15 60 -9 90 20 60 61 33 156 -44 156 -20 0 -46 -6 -57 -12z"
       id="path1187"
       style="fill:#e20074;fill-opacity:1" />
    <path
       d="M4647 3450 c-34 -27 -42 -69 -23 -114 26 -62 99 -75 147 -27 39 39 41 100 4 136 -31 32 -91 34 -128 5z"
       id="path1189"
       style="fill:#e20074;fill-opacity:1" />
    <path
       d="M6052 3380 c-55 -23 -60 -131 -6 -166 30 -20 97 -14 125 12 22 19 34 73 25 109 -11 44 -86 68 -144 45z"
       id="path1191"
       style="fill:#e20074;fill-opacity:1" />
    <path
       d="M1940 2740 c12 -16 24 -30 26 -30 3 0 -4 14 -16 30 -12 17 -24 30 -26 30 -3 0 4 -13 16 -30z"
       id="path1193"
       style="fill:#e20074;fill-opacity:1" />
    <path
       d="M7185 3176 c-14 -14 -26 -31 -26 -38 -8 -73 -5 -89 19 -108 36 -29 67 -25 109 13 28 27 36 41 35 67 -2 79 -85 118 -137 66z m125 -67 c0 -11 -13 -34 -29 -50 -36 -36 -80 -39 -107 -7 l-19 22 25 -17 c39 -27 67 -22 86 16 17 33 34 57 40 57 2 0 4 -9 4 -21z"
       id="path1195"
       style="fill:#e20074;fill-opacity:1" />
    <path
       d="M5500 2560 c0 -5 4 -10 9 -10 5 0 18 -3 28 -6 16 -6 16 -5 -2 9 -23 19 -35 21 -35 7z"
       id="path1197"
       style="fill:#e20074;fill-opacity:1" />
    <path
       d="M5500 2521 c0 -10 39 -36 45 -29 2 2 -8 11 -21 21 -13 10 -24 13 -24 8z"
       id="path1199"
       style="fill:#e20074;fill-opacity:1" />
    <path
       d="M4715 2128 c-3 -24 -5 -86 -3 -138 l3 -95 165 0 c187 0 215 8 244 69 34 73 9 174 -50 196 -14 6 -99 10 -189 10 l-164 0 -6 -42z"
       id="path1201"
       style="fill:#e20074;fill-opacity:1" />
    <path
       d="M6876 8314 c143 -213 208 -444 203 -715 l-4 -146 28 -37 c88 -115 133 -321 107 -491 -7 -43 -25 -117 -42 -163 l-29 -84 20 -52 c47 -119 47 -247 -1 -357 -19 -45 -19 -54 -8 -131 18 -122 8 -400 -18 -503 -11 -44 -23 -87 -26 -95 -4 -10 4 -19 24 -28 133 -59 302 -213 365 -333 36 -69 39 -80 43 -177 5 -112 -6 -184 -41 -266 -16 -39 -18 -52 -9 -67 19 -29 42 -138 42 -194 0 -27 -7 -77 -16 -110 -8 -33 -18 -69 -20 -81 -4 -13 4 -35 21 -59 42 -62 86 -161 131 -293 l41 -123 75 -49 c183 -120 325 -291 457 -547 24 -46 46 -83 50 -83 12 0 174 322 227 450 155 380 242 729 284 1145 13 130 13 511 0 645 -43 433 -177 892 -380 1309 -309 632 -805 1206 -1355 1568 -71 47 -146 96 -166 109 -19 13 -38 24 -41 24 -3 0 14 -30 38 -66z m498 -629 c20 -31 20 -54 0 -83 -31 -45 -114 -14 -114 43 0 59 82 88 114 40z m203 -471 c7 -37 22 -82 37 -104 28 -42 94 -79 156 -87 53 -7 51 -19 -5 -26 -57 -8 -117 -39 -144 -73 -23 -29 -51 -113 -51 -151 0 -13 -4 -23 -10 -23 -5 0 -10 11 -10 25 0 41 -38 130 -71 163 -29 30 -107 62 -151 62 -32 0 -11 17 29 23 21 4 60 20 86 37 53 33 91 99 103 177 3 24 9 43 13 43 4 0 12 -30 18 -66z m468 -399 c28 -27 29 -33 15 -69 -11 -31 -45 -50 -76 -42 -22 6 -54 51 -54 76 0 19 48 60 70 60 12 0 32 -11 45 -25z m-520 -365 c3 -6 3 -19 0 -31 -10 -31 -49 -21 -53 14 -3 23 0 27 22 27 14 0 28 -5 31 -10z m640 -50 c12 -55 74 -110 125 -110 33 0 23 -16 -19 -28 -58 -18 -89 -48 -105 -100 -11 -38 -15 -43 -21 -27 -22 63 -30 78 -57 100 -16 14 -42 28 -56 31 -53 11 -57 17 -18 25 58 14 93 44 113 99 19 53 28 56 38 10z m-443 -227 c20 -18 24 -63 6 -81 -28 -28 -98 -1 -98 37 0 27 30 61 52 61 12 0 30 -7 40 -17z m-298 -198 c8 -23 -4 -45 -25 -45 -11 0 -22 7 -25 15 -9 23 3 45 25 45 10 0 21 -7 25 -15z m476 -113 c0 -9 9 -31 19 -48 17 -28 33 -38 96 -59 17 -6 14 -9 -18 -20 -52 -18 -85 -51 -93 -92 -7 -38 -24 -45 -24 -9 0 45 -67 105 -122 107 -18 1 -16 4 12 13 72 24 110 63 110 116 0 12 5 18 10 15 6 -3 10 -14 10 -23z m430 -41 c15 -28 -21 -71 -47 -55 -23 14 -28 41 -13 59 17 21 47 19 60 -4z m82 -318 c22 -20 23 -41 1 -65 -31 -35 -73 -16 -73 34 0 42 40 60 72 31z m-782 -172 c21 -41 -21 -81 -58 -55 -38 26 -22 74 25 74 12 0 27 -9 33 -19z m418 -170 c34 -114 117 -180 264 -206 80 -14 78 -16 -31 -39 -41 -9 -94 -28 -118 -42 -76 -44 -102 -93 -141 -269 -10 -45 -14 -38 -31 50 -6 33 -24 87 -41 121 -45 92 -113 132 -256 150 -68 8 -61 13 59 39 142 31 212 104 238 250 16 88 21 95 32 45 5 -25 16 -69 25 -99z m386 -557 c21 -20 20 -43 -1 -66 -30 -34 -82 -13 -83 34 0 22 27 48 50 48 10 0 26 -7 34 -16z m-590 -336 c12 -20 2 -44 -27 -62 -36 -23 -75 36 -46 70 16 19 59 14 73 -8z m305 -184 l50 -18 -52 -26 c-45 -22 -55 -32 -73 -77 l-20 -52 -11 42 c-15 54 -50 87 -102 94 -41 6 -48 23 -8 23 41 0 84 36 103 85 l18 47 22 -50 c20 -45 28 -52 73 -68z"
       id="path1203"
       style="fill:#e20074;fill-opacity:1" />
  </g>
</svg>
